<?xml version="1.0" encoding="UTF-8" standalone="no"?>
<svg
   xmlns:dc="http://purl.org/dc/elements/1.1/"
   xmlns:cc="http://creativecommons.org/ns#"
   xmlns:rdf="http://www.w3.org/1999/02/22-rdf-syntax-ns#"
   xmlns:svg="http://www.w3.org/2000/svg"
   xmlns="http://www.w3.org/2000/svg"
   xmlns:sodipodi="http://sodipodi.sourceforge.net/DTD/sodipodi-0.dtd"
   xmlns:inkscape="http://www.inkscape.org/namespaces/inkscape"
   width="110mm"
   height="100mm"
   viewBox="0 0 110 100"
   version="1.1"
   id="svg8"
   inkscape:version="1.0.1 (3bc2e813f5, 2020-09-07)"
   sodipodi:docname="logo-color.svg">
  <style
     id="style987"></style>
  <defs
     id="defs2" />
  <sodipodi:namedview
     id="base"
     pagecolor="#ffffff"
     bordercolor="#666666"
     borderopacity="1.0"
     inkscape:pageopacity="0.0"
     inkscape:pageshadow="2"
     inkscape:zoom="0.51134961"
     inkscape:cx="86.420417"
     inkscape:cy="156.45125"
     inkscape:document-units="mm"
     inkscape:current-layer="layer1"
     inkscape:document-rotation="0"
     showgrid="false"
     inkscape:snap-global="false"
     inkscape:window-width="1267"
     inkscape:window-height="728"
     inkscape:window-x="77"
     inkscape:window-y="50"
     inkscape:window-maximized="0" />
  <metadata
     id="metadata5">
    <rdf:RDF>
      <cc:Work
         rdf:about="">
        <dc:format>image/svg+xml</dc:format>
        <dc:type
           rdf:resource="http://purl.org/dc/dcmitype/StillImage" />
        <dc:title></dc:title>
      </cc:Work>
    </rdf:RDF>
  </metadata>
  <g
     inkscape:label="Layer 1"
     inkscape:groupmode="layer"
     id="layer1">
    <g
       id="g1133"
       transform="matrix(1.1612409,0,0,1.1551062,-7.0170235,-13.527992)"
       style="stroke-width:0.863436">
      <g
         id="g1083"
         style="stroke-width:0.863436">
        <g
           id="g20"
           transform="matrix(0.35277777,0,0,-0.35277777,51.79029,34.01409)"
           style="stroke-width:0.863436">
          <path
             d="m 0,0 c 0.984,0.01 1.239,-0.45 1.232,-1.333 -0.02,-4.75 -0.03,-9.5 0.007,-14.251 0.01,-1.097 -0.514,-1.299 -1.444,-1.282 -2.346,0.034 -4.693,0.01 -7.043,0.01 -2.347,0 -4.693,0.034 -7.04,-0.013 -1.014,-0.02 -1.376,0.356 -1.366,1.369 0.037,3.968 -0.02,7.937 0.034,11.905 0.03,2.256 1.164,3.491 3.383,3.541 C -8.161,0.037 -4.079,-0.034 0,0 m 0.806,22.2 c -1.034,-2.054 -1.189,-3.938 0.288,-5.912 -2.104,1.28 -4.005,1.018 -5.982,-0.352 1.266,2.098 1.195,4.012 -0.215,6.019 2.072,-1.188 3.948,-1.202 5.909,0.245 m -0.937,-60.554 c -4.028,0.06 -8.054,-0.007 -12.082,0.036 -2.185,0.027 -3.357,1.138 -3.397,3.314 -0.071,4.082 -0.007,8.164 -0.041,12.246 -0.006,0.964 0.41,1.259 1.316,1.256 4.754,-0.024 9.508,-0.034 14.265,0.007 1.074,0.006 1.322,-0.477 1.309,-1.43 -0.041,-2.404 -0.014,-4.808 -0.014,-7.215 0,-2.236 -0.037,-4.475 0.017,-6.711 0.027,-1.023 -0.205,-1.52 -1.373,-1.503 M 7.453,0.01 c 3.8,-0.047 7.603,0.01 11.404,-0.03 2.719,-0.03 3.854,-1.192 3.874,-3.935 0.03,-3.8 -0.034,-7.6 0.03,-11.4 0.02,-1.185 -0.379,-1.558 -1.538,-1.521 -2.289,0.071 -4.582,0.02 -6.875,0.02 -2.347,0 -4.693,0.044 -7.04,-0.017 -1.104,-0.03 -1.453,0.38 -1.443,1.464 0.043,4.636 0.053,9.279 -0.004,13.915 -0.013,1.222 0.477,1.517 1.592,1.504 m 15.268,-34.873 c -0.031,-2.283 -1.185,-3.431 -3.431,-3.455 -4.029,-0.043 -8.057,0.011 -12.082,-0.03 -1.031,-0.013 -1.367,0.346 -1.343,1.36 0.057,2.35 0.02,4.7 0.02,7.05 0,2.35 0.03,4.7 -0.014,7.05 -0.02,0.997 0.319,1.396 1.35,1.389 4.754,-0.033 9.511,-0.03 14.264,0 0.95,0.007 1.276,-0.342 1.266,-1.279 -0.034,-4.028 0.023,-8.057 -0.03,-12.085 M 51.225,2.387 C 35.326,16.161 19.417,29.922 3.515,43.696 2.854,44.27 2.044,44.649 1.42,43.991 c -2.437,-2.572 -5.036,-3.015 -8.064,-1.064 -0.644,0.416 -1.43,0.1 -1.906,-0.598 -0.427,-0.624 -0.41,-1.279 0.026,-1.876 0.393,-0.544 0.863,-1.031 1.276,-1.558 C -5.623,36.83 -5.737,35.571 -7.684,33.89 -13.61,28.767 -19.538,23.644 -25.463,18.521 -31.597,13.213 -37.737,7.909 -43.867,2.595 c -1.756,-1.521 -2.269,-2.944 -1.628,-4.525 0.779,-1.917 2.357,-2.37 4.24,-2.29 1.115,0.051 2.236,0.01 3.357,0.01 2.276,-0.003 2.276,-0.003 2.28,-2.279 0,-16.114 -0.004,-32.228 0.01,-48.342 0,-0.477 -0.249,-1.111 0.255,-1.397 0.517,-0.288 0.906,0.282 1.309,0.534 3.783,2.367 7.866,3.992 12.193,5.046 6.677,1.625 13.499,1.883 20.313,2.205 6.54,0.309 13.076,0.615 19.431,2.428 12.542,3.578 20.351,13.908 20.378,26.937 0.016,8.1 -2.313,15.57 -6.164,22.576 C 24.977,16.47 14.15,25.779 1.826,33.54 c -1.913,1.206 -3.823,0.977 -5.636,-0.369 -0.527,-0.393 -0.96,-1.017 -1.9,-1.098 0.584,1.659 1.349,3.049 1.191,4.683 -0.157,1.659 -1.53,2.71 -2.058,4.378 3.237,-1.903 6.104,-1.548 8.638,1.269 C 2.135,42.259 2.209,42.114 2.283,41.97 2.196,41.718 2.125,41.46 2.018,41.221 0.164,37.133 0.571,35.806 4.425,33.591 9.524,30.66 14.439,27.447 19.118,23.889 28.34,16.879 36.417,8.829 41.816,-1.585 49.768,-16.92 47.825,-34.568 36.827,-46.848 30.156,-54.297 21.526,-58.292 12.028,-60.729 6.59,-62.126 0.98,-62.415 -4.519,-63.418 c -5.304,-0.971 -10.467,-2.36 -15.338,-4.727 -0.974,-0.47 -1.185,-0.839 -0.225,-1.595 1.672,-1.312 3.297,-2.689 4.885,-4.099 0.688,-0.611 1.275,-0.695 2.098,-0.262 4.602,2.421 9.587,3.68 14.65,4.657 7.241,1.4 14.593,2.259 21.616,4.683 9.115,3.149 17.215,7.785 23.1,15.674 2.041,2.736 3.673,5.697 4.499,9.061 -2.011,-3.518 -4.502,-6.583 -7.846,-9.024 -0.597,2.35 -0.379,5.076 0.41,6.472 6.402,11.351 7.704,23.188 3.384,35.558 -0.971,2.78 -0.971,2.78 2.024,2.81 2.088,0.024 3.297,0.735 3.881,2.296 0.584,1.558 0.164,2.951 -1.394,4.301"
             style="fill:#283978;fill-opacity:1;fill-rule:nonzero;stroke:none;stroke-width:0.863436"
             id="path22" />
        </g>
        <g
           id="g24"
           transform="matrix(0.35277777,0,0,-0.35277777,42.60844,63.82763)"
           style="stroke-width:0.863436">
          <path
             d="m 0,0 c -0.859,-1.088 -1.846,-1.94 -3.528,-1.927 -1.427,0.097 -2.521,0.92 -3.049,2.444 -0.463,1.326 0.212,3.236 1.296,4.079 0.494,0.383 0.816,0.168 1.169,-0.124 C -2.827,3.404 -1.554,2.326 -0.269,1.259 0.161,0.903 0.43,0.544 0,0 M 12.153,-6.328 C 3.585,0.846 -4.985,8.02 -13.566,15.181 c -0.366,0.305 -0.718,0.943 -1.215,0.735 -0.608,-0.259 -0.326,-0.99 -0.339,-1.507 -0.148,-5.365 -0.299,-10.73 -0.383,-16.094 -0.047,-2.867 -0.913,-5.355 -2.91,-7.453 -4.7,-4.942 -9.373,-9.907 -14.05,-14.868 -2.645,-2.807 -5.314,-5.59 -7.912,-8.44 -2.73,-2.998 -2.548,-7.285 0.329,-9.715 2.944,-2.485 7.076,-2.028 9.681,1.087 0.43,0.514 0.813,1.068 1.212,1.605 6.009,8.07 12.025,16.134 18.018,24.218 1.608,2.172 3.689,3.531 6.331,4.062 3.562,0.715 7.12,1.437 10.682,2.162 2.384,0.49 4.767,0.99 7.178,1.49 -0.168,0.685 -0.564,0.927 -0.903,1.209"
             style="fill:#283978;fill-opacity:1;fill-rule:nonzero;stroke:none;stroke-width:0.863436"
             id="path26" />
        </g>
        <g
           id="g28"
           transform="matrix(0.35277777,0,0,-0.35277777,55.5907,70.41353)"
           style="stroke-width:0.863436">
          <path
             d="m 0,0 c -0.47,-0.305 -0.846,0.003 -1.195,0.289 -1.806,1.5 -3.612,3.001 -5.412,4.508 -19.706,16.507 -39.412,33.014 -59.101,49.544 -0.571,0.48 -1.886,0.963 -1.161,1.856 0.765,0.94 1.45,-0.322 2,-0.785 C -43.555,37.606 -22.261,19.77 -0.97,1.937 -0.504,1.548 0.04,1.219 0.269,0.493 0.201,0.363 0.151,0.097 0,0 M 2.367,1.47 C 1.984,1.944 1.511,2.353 1.041,2.746 c -11.139,9.336 -22.281,18.662 -33.42,27.995 -10.672,8.936 -21.337,17.876 -32.006,26.816 -0.99,0.832 -1.991,1.652 -3.646,1.625 -1.252,-0.125 -2.437,-0.786 -3.045,-2.203 -0.564,-1.319 -0.47,-2.621 0.49,-3.773 1.118,-1.343 2.548,-2.34 3.871,-3.451 19.961,-16.735 39.936,-33.453 59.92,-50.161 1.494,-1.252 2.857,-2.689 4.593,-3.636 1.554,-0.846 3.491,-0.443 4.555,0.866 1.101,1.353 1.128,3.263 0.014,4.646"
             style="fill:#283978;fill-opacity:1;fill-rule:nonzero;stroke:none;stroke-width:0.863436"
             id="path30" />
        </g>
        <g
           id="g32"
           transform="matrix(0.35277777,0,0,-0.35277777,71.01756,43.22561)"
           style="stroke-width:0.863436">
          <path
             d="m 0,0 c 0,-0.832 0.009,-1.665 -0.002,-2.497 -0.057,-4.319 -0.459,-8.602 -1.517,-12.798 -1.986,-7.88 -6.393,-14.47 -11.242,-20.8 -2.828,-3.692 -6.636,-6.102 -10.879,-7.871 -4.253,-1.774 -8.734,-2.747 -13.21,-3.735 -4.635,-1.023 -9.342,-1.828 -13.586,-4.124 -1.944,-1.051 -3.77,-2.27 -4.847,-4.328 0.435,-0.289 0.67,-0.061 0.895,0.06 4.184,2.247 8.748,2.981 13.397,3.387 3.174,0.277 6.403,0.22 9.497,1.015 2.156,0.554 4.296,0.609 6.473,0.604 3.861,-0.01 7.722,0.041 11.581,-0.029 1.22,-0.022 1.703,0.291 1.644,1.582 -0.096,2.066 0,4.139 -0.037,6.209 -0.015,0.842 0.26,1.487 0.822,2.106 2.72,2.999 4.982,6.318 6.816,9.927 C 0.846,-21.373 2.066,-10.908 0,0"
             style="fill:#7cd3cc;fill-opacity:1;fill-rule:nonzero;stroke:none;stroke-width:0.863436"
             id="path34" />
        </g>
        <g
           id="g36"
           transform="matrix(0.35277777,0,0,-0.35277777,47.00575,67.67047)"
           style="stroke-width:0.863436">
          <path
             d="m 0,0 c 0.113,-0.228 0.148,-0.415 0.261,-0.51 3.682,-3.095 7.367,-6.185 11.061,-9.264 0.619,-0.516 1.349,-0.824 2.167,-0.757 0.812,0.067 1.614,0.356 1.926,1.136 0.318,0.798 -0.483,1.167 -0.97,1.58 C 11.586,-5.394 8.56,-3.146 5.888,-0.536 3.897,1.408 2.09,0.84 0,0"
             style="fill:#7cd3cc;fill-opacity:1;fill-rule:nonzero;stroke:none;stroke-width:0.863436"
             id="path38" />
        </g>
        <g
           id="g40"
           transform="matrix(0.35277777,0,0,-0.35277777,36.26317,57.82656)"
           style="stroke-width:0.863436">
          <path
             d="m 0,0 c -0.006,0.855 0.256,1.709 -0.538,2.37 -3.481,2.893 -6.948,5.802 -10.416,8.71 -0.923,0.774 -1.542,0.447 -1.897,-0.556 -0.558,-1.573 0.219,-2.691 1.361,-3.647 3.083,-2.584 6.154,-5.182 9.269,-7.726 0.567,-0.463 1.057,-1.506 1.849,-1.138 C 0.253,-1.697 -0.177,-0.651 0,0"
             style="fill:#7cd3cc;fill-opacity:1;fill-rule:nonzero;stroke:none;stroke-width:0.863436"
             id="path42" />
        </g>
        <g
           id="g44"
           transform="matrix(0.35277777,0,0,-0.35277777,79.13184,48.64724)"
           style="stroke-width:0.863436">
          <path
             d="M 0,0 C -3.98,0.53 -6.081,2.63 -6.685,6.548 -7.237,2.566 -9.445,0.508 -13.389,0.005 -9.44,-0.517 -7.218,-2.644 -6.657,-6.624 -6.076,-2.65 -3.942,-0.495 0,0"
             style="fill:#7cd3cc;fill-opacity:1;fill-rule:nonzero;stroke:none;stroke-width:0.863436"
             id="path46" />
        </g>
        <g
           id="g48"
           transform="matrix(0.35277777,0,0,-0.35277777,71.61168,56.82237)"
           style="stroke-width:0.863436">
          <path
             d="m 0,0 c -0.483,-2.054 -1.675,-3.216 -3.728,-3.712 2.054,-0.502 3.278,-1.652 3.691,-3.74 0.435,2.14 1.786,3.246 3.821,3.758 C 1.738,-3.217 0.428,-2.169 0,0"
             style="fill:#283978;fill-opacity:1;fill-rule:nonzero;stroke:none;stroke-width:0.863436"
             id="path50" />
        </g>
        <g
           id="g52"
           transform="matrix(0.35277777,0,0,-0.35277777,46.0191,21.98719)"
           style="stroke-width:0.863436">
          <path
             d="M 0,0 C -0.426,1.203 -0.328,2.193 0.088,3.469 -1.108,2.628 -2.078,3.065 -3.229,3.284 -2.625,2.191 -2.8,1.275 -3.195,0.197 -2.051,0.497 -1.13,0.544 0,0"
             style="fill:#7cd3cc;fill-opacity:1;fill-rule:nonzero;stroke:none;stroke-width:0.863436"
             id="path54" />
        </g>
        <g
           id="g56"
           transform="matrix(0.35277777,0,0,-0.35277777,73.24352,39.65575)"
           style="stroke-width:0.863436">
          <path
             d="M 0,0 C -1.392,0.456 -2.089,1.107 -2.517,2.433 -3.019,1.174 -3.652,0.456 -4.888,0.016 -3.646,-0.481 -3.051,-1.295 -2.433,-2.364 -2.052,-1.159 -1.398,-0.513 0,0"
             style="fill:#283978;fill-opacity:1;fill-rule:nonzero;stroke:none;stroke-width:0.863436"
             id="path58" />
        </g>
        <g
           id="g60"
           transform="matrix(0.35277777,0,0,-0.35277777,54.71994,16.60843)"
           style="stroke-width:0.863436">
          <path
             d="M 0,0 C 0.23,0.156 1.145,-0.52 0.797,0.524 0.681,0.87 1.377,1.797 0.18,1.578 -0.358,1.48 -0.914,1.61 -0.778,0.721 -0.703,0.23 -0.932,-0.354 0,0"
             style="fill:#283978;fill-opacity:1;fill-rule:nonzero;stroke:none;stroke-width:0.863436"
             id="path62" />
        </g>
      </g>
      <g
         id="g1059"
         style="stroke-width:0.863436">
        <g
           id="g64"
           transform="matrix(0.35277777,0,0,-0.35277777,14.59129,70.13339)"
           style="stroke-width:0.863436">
          <path
             d="M 0,0 C -1.052,1.713 -1.565,2.585 -2.564,4.358 -0.106,4.586 1.115,4.723 3.542,5.042 2.096,3.056 1.388,2.047 0,0 M 5.979,9.484 C -1.099,8.72 -4.709,8.534 -12.027,8.595 c 0.96,-1.96 1.455,-2.925 2.474,-4.822 1.471,0.123 2.204,0.192 3.665,0.345 1.569,-2.852 2.388,-4.241 4.087,-6.944 -0.789,-1.291 -1.178,-1.942 -1.942,-3.254 1.385,-2.145 2.097,-3.195 3.559,-5.246 3.456,6.436 5.329,9.54 9.333,15.473 C 7.839,6.233 7.204,7.3 5.979,9.484"
             style="fill:#283978;fill-opacity:1;fill-rule:nonzero;stroke:none;stroke-width:0.863436"
             id="path66" />
        </g>
        <g
           id="g68"
           transform="matrix(0.35277777,0,0,-0.35277777,20.013838,71.83787)"
           style="stroke-width:0.863436">
          <path
             d="m 0,0 c -5.182,-4.009 -7.773,-6.013 -12.955,-10.022 3.779,-4.959 5.787,-7.292 9.994,-11.668 0.917,0.891 1.375,1.337 2.292,2.228 -2.606,2.709 -3.87,4.121 -6.311,7.06 4.034,3.399 6.052,5.099 10.087,8.498 C 1.838,-2.377 1.216,-1.596 0,0"
             style="fill:#283978;fill-opacity:1;fill-rule:nonzero;stroke:none;stroke-width:0.863436"
             id="path70" />
        </g>
        <g
           id="g72"
           transform="matrix(0.35277777,0,0,-0.35277777,29.11787,82.71013)"
           style="stroke-width:0.863436">
          <path
             d="M 0,0 C -0.304,-0.46 -0.786,-0.713 -1.444,-0.759 -2.105,-0.801 -2.832,-0.555 -3.613,-0.012 -4.995,0.949 -5.68,1.443 -7.034,2.456 -6.088,3.721 -5.615,4.354 -4.67,5.62 -3.278,4.579 -2.574,4.073 -1.153,3.088 -0.481,2.623 -0.045,2.083 0.156,1.466 0.334,0.918 0.284,0.429 0,0 m 1.163,5.17 c -3.189,2.179 -4.747,3.34 -7.777,5.807 -4.131,-5.096 -6.197,-7.643 -10.328,-12.738 1.76,-1.432 2.653,-2.128 4.461,-3.475 1.579,2.122 2.369,3.182 3.948,5.304 1.157,-0.862 1.741,-1.283 2.918,-2.109 -0.364,-2.976 -0.512,-4.475 -0.738,-7.495 2.05,-1.354 3.088,-2.005 5.188,-3.256 -0.047,3.444 -0.021,5.156 0.125,8.553 1.105,-0.421 2.164,-0.455 3.166,-0.114 1,0.344 1.747,0.936 2.249,1.767 C 5.06,-1.453 5.144,-0.228 4.69,1.08 4.174,2.565 3.005,3.911 1.163,5.17"
             style="fill:#283978;fill-opacity:1;fill-rule:nonzero;stroke:none;stroke-width:0.863436"
             id="path74" />
        </g>
        <g
           id="g76"
           transform="matrix(0.35277777,0,0,-0.35277777,39.55885,85.89761)"
           style="stroke-width:0.863436">
          <path
             d="m 0,0 c -2.654,-3.718 -4.034,-5.55 -6.899,-9.155 0.215,4.588 0.382,6.871 0.83,11.409 -1.611,0.649 -2.411,0.988 -4.001,1.697 -3.016,-3.532 -4.577,-5.266 -7.799,-8.662 0.748,4.582 1.176,6.858 2.138,11.37 -1.735,0.888 -2.595,1.35 -4.298,2.312 -1.457,-6.71 -2.055,-10.117 -2.98,-17.003 1.975,-1.007 2.972,-1.489 4.981,-2.41 3.041,3.322 4.516,5.014 7.372,8.453 -0.46,-4.462 -0.635,-6.708 -0.87,-11.222 2.045,-0.81 3.075,-1.193 5.147,-1.918 4.283,5.445 6.306,8.235 10.106,13.926 C 2.23,-0.746 1.484,-0.506 0,0"
             style="fill:#283978;fill-opacity:1;fill-rule:nonzero;stroke:none;stroke-width:0.863436"
             id="path78" />
        </g>
        <g
           id="g80"
           transform="matrix(0.35277777,0,0,-0.35277777,45.40071,90.24415)"
           style="stroke-width:0.863436">
          <path
             d="m 0,0 c -0.356,-1.967 -0.991,-3.377 -1.938,-4.218 -0.84,-0.746 -1.853,-1.005 -3.019,-0.763 -1.103,0.228 -1.934,0.859 -2.463,1.872 -0.623,1.195 -0.678,2.776 -0.202,4.719 0.345,1.408 1.008,2.461 1.962,3.178 0.954,0.714 1.905,0.972 2.877,0.771 C -1.731,5.34 -0.949,4.724 -0.419,3.701 0.114,2.674 0.261,1.442 0,0 m -2.217,8.776 c -2.616,0.546 -4.872,0.203 -6.882,-1.084 -1.787,-1.144 -3.041,-2.803 -3.686,-5.034 -0.788,-2.729 -0.567,-5.058 0.754,-6.95 1.27,-1.817 3.461,-3.104 6.496,-3.731 2.884,-0.596 5.3,-0.303 7.152,0.796 1.973,1.178 3.114,3.195 3.501,5.989 0.324,2.33 -0.147,4.388 -1.325,6.2 -1.305,2.011 -3.28,3.244 -6.01,3.814"
             style="fill:#283978;fill-opacity:1;fill-rule:nonzero;stroke:none;stroke-width:0.863436"
             id="path82" />
        </g>
        <g
           id="g84"
           transform="matrix(0.35277777,0,0,-0.35277777,50.55374,91.60775)"
           style="stroke-width:0.863436">
          <path
             d="M 0,0 C 1.032,2.194 1.529,3.296 2.484,5.51 3.237,3.221 3.633,2.08 4.464,-0.197 2.677,-0.148 1.784,-0.109 0,0 M 0.418,9.951 C -2.474,3.573 -4.089,0.422 -7.646,-5.762 c 1.866,-0.212 2.801,-0.302 4.674,-0.451 0.624,1.309 0.93,1.965 1.529,3.28 2.842,-0.199 4.266,-0.261 7.113,-0.312 0.569,-1.364 0.86,-2.045 1.459,-3.403 2.287,-0.016 3.43,0 5.716,0.078 C 9.722,-0.128 8.333,3.142 5.907,9.731 3.71,9.769 2.611,9.814 0.418,9.951"
             style="fill:#283978;fill-opacity:1;fill-rule:nonzero;stroke:none;stroke-width:0.863436"
             id="path86" />
        </g>
        <g
           id="g88"
           transform="matrix(0.35277777,0,0,-0.35277777,60.61454,91.73263)"
           style="stroke-width:0.863436">
          <path
             d="m 0,0 c -0.757,-1.159 -1.954,-1.857 -3.533,-2.055 -1.116,-0.14 -1.674,-0.204 -2.792,-0.32 -0.431,4.038 -0.647,6.057 -1.079,10.096 0.937,0.098 1.405,0.15 2.34,0.266 1.559,0.192 2.862,-0.163 3.948,-1.09 C -0.149,6.068 0.461,4.985 0.688,3.635 0.914,2.284 0.694,1.062 0,0 m 2.332,9.64 c -2.01,1.331 -4.408,1.771 -7.313,1.402 -3.002,-0.381 -4.509,-0.526 -7.526,-0.721 0.434,-6.53 0.651,-9.796 1.085,-16.327 3.537,0.229 5.303,0.399 8.82,0.853 3.126,0.403 5.501,1.691 7.03,3.747 C 5.796,0.435 6.206,2.462 5.749,4.641 5.297,6.8 4.131,8.448 2.332,9.64"
             style="fill:#283978;fill-opacity:1;fill-rule:nonzero;stroke:none;stroke-width:0.863436"
             id="path90" />
        </g>
        <g
           id="g92"
           transform="matrix(0.35277777,0,0,-0.35277777,72.11149,87.77337)"
           style="stroke-width:0.863436">
          <path
             d="m 0,0 c 0.456,-1.017 0.399,-1.972 -0.184,-2.853 -0.453,-0.687 -1.138,-1.222 -2.044,-1.591 -1.448,-0.59 -2.739,-0.486 -3.84,0.289 -0.909,0.64 -1.615,1.655 -2.13,3.029 C -8.826,0.549 -8.937,1.986 -8.556,3.186 -8.214,4.262 -7.537,5 -6.5,5.42 -5.612,5.78 -4.766,5.824 -3.94,5.544 -3.019,5.238 -2.313,4.562 -1.84,3.5 -0.034,4.453 0.86,4.948 2.626,5.975 1.639,7.97 0.004,9.047 -2.225,9.301 -3.991,9.501 -5.827,9.195 -7.79,8.4 -10.456,7.32 -12.26,5.641 -13.272,3.239 -14.091,1.295 -14.27,-0.52 -13.72,-2.207 c 0.93,-2.854 2.529,-4.784 4.884,-5.696 2.192,-0.852 4.771,-0.733 7.612,0.419 2.084,0.844 3.697,1.984 4.809,3.362 1.438,1.791 1.79,3.769 1.125,5.887 C 2.835,1.02 1.893,0.667 0,0"
             style="fill:#283978;fill-opacity:1;fill-rule:nonzero;stroke:none;stroke-width:0.863436"
             id="path94" />
        </g>
        <g
           id="g96"
           transform="matrix(0.35277777,0,0,-0.35277777,77.22568,86.43232)"
           style="stroke-width:0.863436">
          <path
             d="M 0,0 C -2.68,4.549 -4.021,6.824 -6.701,11.373 -8.32,10.425 -9.137,9.969 -10.786,9.09 -7.68,3.314 -6.127,0.426 -3.021,-5.35 2.103,-2.619 4.607,-1.108 9.454,2.207 8.732,3.262 8.371,3.789 7.648,4.845 4.646,2.792 3.114,1.823 0,0"
             style="fill:#283978;fill-opacity:1;fill-rule:nonzero;stroke:none;stroke-width:0.863436"
             id="path98" />
        </g>
        <g
           id="g100"
           transform="matrix(0.35277777,0,0,-0.35277777,82.51241,82.72706)"
           style="stroke-width:0.863436">
          <path
             d="M 0,0 C -0.933,1.177 -1.399,1.766 -2.332,2.943 0.304,5.039 1.594,6.137 4.11,8.432 3.246,9.386 2.813,9.864 1.949,10.818 -0.504,8.58 -1.762,7.51 -4.332,5.466 c -0.795,1.002 -1.192,1.503 -1.986,2.505 3.114,2.477 4.63,3.788 7.565,6.556 -0.774,0.828 -1.161,1.242 -1.936,2.07 -4.337,-4.091 -6.617,-5.973 -11.343,-9.411 3.858,-5.305 5.788,-7.958 9.646,-13.263 5.462,3.974 8.095,6.152 13.1,10.892 C 9.785,5.804 9.321,6.299 8.392,7.288 5.139,4.207 3.457,2.749 0,0"
             style="fill:#283978;fill-opacity:1;fill-rule:nonzero;stroke:none;stroke-width:0.863436"
             id="path102" />
        </g>
        <g
           id="g104"
           transform="matrix(0.35277777,0,0,-0.35277777,88.27584,75.62007)"
           style="stroke-width:0.863436">
          <path
             d="M 0,0 C -1.239,-1.479 -1.87,-2.204 -3.152,-3.623 -4.176,-1.391 -4.705,-0.286 -5.794,1.898 -3.499,1.1 -2.339,0.72 0,0 m -10.656,2.947 c 3.048,-6.397 4.43,-9.702 6.887,-16.486 1.415,1.393 2.111,2.105 3.483,3.561 -0.605,1.336 -0.913,2 -1.54,3.32 2.062,2.235 3.068,3.39 5.022,5.775 1.449,-0.37 2.178,-0.547 3.643,-0.885 1.55,1.938 2.308,2.932 3.784,4.964 C 3.482,4.511 -0.01,5.366 -6.797,7.423 -8.304,5.584 -9.076,4.689 -10.656,2.947"
             style="fill:#283978;fill-opacity:1;fill-rule:nonzero;stroke:none;stroke-width:0.863436"
             id="path106" />
        </g>
        <g
           id="g108"
           transform="matrix(0.35277777,0,0,-0.35277777,96.46321,67.10116)"
           style="stroke-width:0.863436">
          <path
             d="m 0,0 c -5.878,2.879 -8.817,4.319 -14.694,7.198 -0.749,-1.528 -1.134,-2.282 -1.923,-3.767 3.326,-1.777 4.988,-2.666 8.314,-4.444 -4.922,-1.226 -7.365,-1.685 -12.183,-2.324 -1.129,-1.84 -1.71,-2.741 -2.903,-4.505 5.402,-3.703 8.103,-5.554 13.505,-9.257 1.035,1.532 1.542,2.31 2.535,3.891 -3.68,2.342 -5.519,3.513 -9.199,5.855 5.615,0.74 8.469,1.291 14.218,2.8 C -1.372,-2.76 -0.906,-1.849 0,0"
             style="fill:#283978;fill-opacity:1;fill-rule:nonzero;stroke:none;stroke-width:0.863436"
             id="path110" />
        </g>
      </g>
    </g>
  </g>
</svg>
