<?xml version="1.0" encoding="UTF-8" standalone="no"?>
<svg
   xmlns:dc="http://purl.org/dc/elements/1.1/"
   xmlns:cc="http://creativecommons.org/ns#"
   xmlns:rdf="http://www.w3.org/1999/02/22-rdf-syntax-ns#"
   xmlns:svg="http://www.w3.org/2000/svg"
   xmlns="http://www.w3.org/2000/svg"
   xmlns:sodipodi="http://sodipodi.sourceforge.net/DTD/sodipodi-0.dtd"
   xmlns:inkscape="http://www.inkscape.org/namespaces/inkscape"
   version="1.1"
   id="Capa_1"
   x="0px"
   y="0px"
   viewBox="0 0 99.999998 99.999998"
   xml:space="preserve"
   sodipodi:docname="phone.svg"
   width="100"
   height="100"
   inkscape:version="1.0.1 (3bc2e813f5, 2020-09-07)"><metadata
   id="metadata43"><rdf:RDF><cc:Work
       rdf:about=""><dc:format>image/svg+xml</dc:format><dc:type
         rdf:resource="http://purl.org/dc/dcmitype/StillImage" /><dc:title></dc:title></cc:Work></rdf:RDF></metadata><defs
   id="defs41">
	
	
</defs><sodipodi:namedview
   pagecolor="#ffffff"
   bordercolor="#666666"
   borderopacity="1"
   objecttolerance="10"
   gridtolerance="10"
   guidetolerance="10"
   inkscape:pageopacity="0"
   inkscape:pageshadow="2"
   inkscape:window-width="1360"
   inkscape:window-height="705"
   id="namedview39"
   showgrid="false"
   inkscape:zoom="1.3301323"
   inkscape:cx="-104.89786"
   inkscape:cy="43.836083"
   inkscape:window-x="-8"
   inkscape:window-y="42"
   inkscape:window-maximized="1"
   inkscape:current-layer="Capa_1" />
<rect
   style="opacity:0.992;fill:#037df4;fill-opacity:0.99607843;stroke-width:50"
   id="rect870"
   width="100"
   height="100"
   x="0"
   y="0"
   rx="0"
   ry="0" /><path
   d="m 72.996103,62.144535 c -1.749561,-3.307906 -7.825096,-6.89467 -8.092583,-7.051524 -0.78068,-0.444424 -1.59534,-0.679707 -2.357724,-0.679707 -1.133554,0 -2.061482,0.519367 -2.623466,1.463985 -0.888722,1.063132 -1.99091,2.305775 -2.258397,2.498358 -2.070195,1.404729 -3.690802,1.245258 -5.483925,-0.548122 L 42.172319,47.817533 c -1.781798,-1.782056 -1.945602,-3.422937 -0.550658,-5.482101 0.195169,-0.26927 1.437635,-1.372485 2.500614,-2.262204 0.677868,-0.403467 1.143138,-1.003004 1.34702,-1.738483 0.270975,-0.978603 0.07144,-2.129747 -0.568082,-3.251263 -0.15073,-0.257941 -3.738724,-6.335219 -7.044415,-8.084158 -0.616879,-0.326783 -1.31217,-0.499323 -2.009207,-0.499323 -1.148366,0 -2.228771,0.447908 -3.040818,1.259201 l -2.211344,2.21079 c -3.497376,3.497004 -4.763367,7.461093 -3.764864,11.781589 0.832958,3.600704 3.260385,7.432336 7.216061,11.387708 L 46.859011,65.953511 C 51.86547,70.960687 56.63842,73.5 61.045428,73.5 c 0,0 0,0 0,0 3.242086,0 6.262864,-1.377712 8.97956,-4.093929 l 2.210473,-2.21079 c 1.343536,-1.342856 1.648491,-3.373264 0.760642,-5.050746 z"
   id="path2"
   style="stroke-width:1;fill:#ffffff" />
<g
   id="g8">
</g>
<g
   id="g10">
</g>
<g
   id="g12">
</g>
<g
   id="g14">
</g>
<g
   id="g16">
</g>
<g
   id="g18">
</g>
<g
   id="g20">
</g>
<g
   id="g22">
</g>
<g
   id="g24">
</g>
<g
   id="g26">
</g>
<g
   id="g28">
</g>
<g
   id="g30">
</g>
<g
   id="g32">
</g>
<g
   id="g34">
</g>
<g
   id="g36">
</g>
</svg>
